<svg xmlns="http://www.w3.org/2000/svg" version="1.1" xmlns:xlink="http://www.w3.org/1999/xlink" xmlns:svgjs="http://svgjs.dev/svgjs" width="1500" height="1500" viewBox="0 0 1500 1500"><rect width="1500" height="1500" fill="#ffffff"></rect><g transform="matrix(0.6666666666666666,0,0,0.6666666666666666,249.39393939393938,499.37171844863497)"><svg viewBox="0 0 396 199" data-background-color="#ffffff" preserveAspectRatio="xMidYMid meet" height="753" width="1500" xmlns="http://www.w3.org/2000/svg" xmlns:xlink="http://www.w3.org/1999/xlink"><g id="tight-bounds" transform="matrix(1,0,0,1,0.2400000000000091,-0.1473545244588763)"><svg viewBox="0 0 395.52 199.29470904891775" height="199.29470904891775" width="395.52"><g><svg viewBox="0 0 398.9043180292683 200.99999999999997" height="199.29470904891775" width="395.52"><g><rect width="8.51051765403377" height="200.99999999999997" x="154.37199399624765" y="0" fill="#2196f3" opacity="1" stroke-width="0" stroke="transparent" fill-opacity="1" class="rect-qz-0" data-fill-palette-color="primary" rx="1%" id="qz-0" data-palette-color="#2196f3"></rect></g><g transform="matrix(1,0,0,1,185.16135367654783,0.4999999999999858)"><svg viewBox="0 0 213.7429643527205 200" height="200" width="213.7429643527205"><g id="textblocktransform"><svg viewBox="0 0 213.7429643527205 200" height="200" width="213.7429643527205" id="textblock"><g><svg viewBox="0 0 213.7429643527205 200" height="200" width="213.7429643527205"><g transform="matrix(1,0,0,1,0,0)"><svg width="213.7429643527205" viewBox="1.6800000000000042 -29.93 114.22 94.28" height="200" data-palette-color="#2196f3"><svg></svg><svg></svg><g class="wordmark-text-0" data-fill-palette-color="primary" id="text-0"><path d="M14.65 0.25v0-3.35c-2.533 0-4.51-0.927-5.93-2.78v0c-1.427-1.813-2.14-4.813-2.14-9v0c0-4.413 0.74-7.47 2.22-9.17v0c1.467-1.687 3.393-2.53 5.78-2.53v0c2.447 0 4.353 0.8 5.72 2.4v0c1.187 1.5 1.847 4.067 1.98 7.7v0h-16.25v3.15h21.25c0.067-0.5 0.1-1.04 0.1-1.62v0c0-4.953-0.983-8.687-2.95-11.2v0c-1.987-2.52-5.27-3.78-9.85-3.78v0c-4.453 0-7.713 1.26-9.78 3.78v0c-2.08 2.5-3.12 6.257-3.12 11.27v0c0 4.733 1.017 8.443 3.05 11.13v0c2.013 2.667 5.32 4 9.92 4zM14.65-3.1v0 3.35c2.5 0 4.567-0.327 6.2-0.98v0c1.633-0.647 2.967-1.687 4-3.12v0c1.02-1.42 1.67-3.147 1.95-5.18v0l-4.55-1.22c-0.28 1.467-0.703 2.783-1.27 3.95v0c-0.6 1.167-1.443 1.99-2.53 2.47v0c-1.087 0.487-2.353 0.73-3.8 0.73zM41.92 0.28v0c1.453 0 2.75-0.13 3.89-0.39 1.147-0.26 2.137-0.593 2.97-1 0.833-0.413 1.517-0.853 2.05-1.32 0.533-0.467 0.907-0.907 1.12-1.32v0l0.43 3.75h4.22v-18.85c0-2.667-0.48-4.81-1.44-6.43-0.953-1.613-2.347-2.787-4.18-3.52-1.833-0.733-4.067-1.1-6.7-1.1v0c-1.573 0-3.04 0.163-4.4 0.49-1.367 0.32-2.59 0.83-3.67 1.53-1.073 0.7-1.973 1.617-2.7 2.75-0.727 1.133-1.223 2.517-1.49 4.15v0l4.96 1.33c0.247-1.653 0.7-2.973 1.36-3.96 0.66-0.993 1.497-1.717 2.51-2.17 1.02-0.447 2.17-0.67 3.45-0.67v0c1.487 0 2.77 0.25 3.85 0.75 1.087 0.5 1.92 1.287 2.5 2.36 0.587 1.073 0.88 2.487 0.88 4.24v0 1.67h-9.68c-1.547 0-2.947 0.143-4.2 0.43-1.253 0.287-2.317 0.757-3.19 1.41-0.873 0.66-1.543 1.553-2.01 2.68-0.467 1.12-0.7 2.53-0.7 4.23v0c0 1.767 0.237 3.23 0.71 4.39 0.473 1.16 1.167 2.073 2.08 2.74 0.907 0.667 1.98 1.137 3.22 1.41 1.247 0.28 2.633 0.42 4.16 0.42zM43.03-3.05v0c-0.853 0-1.653-0.087-2.4-0.26-0.753-0.18-1.413-0.477-1.98-0.89-0.567-0.42-1.003-1.003-1.31-1.75-0.307-0.753-0.46-1.73-0.46-2.93v0c0-1.167 0.157-2.123 0.47-2.87 0.32-0.753 0.757-1.333 1.31-1.74 0.56-0.407 1.217-0.69 1.97-0.85 0.747-0.16 1.547-0.24 2.4-0.24v0h8.42v7.73c-0.28 0.613-0.797 1.213-1.55 1.8-0.747 0.587-1.7 1.067-2.86 1.44-1.16 0.373-2.497 0.56-4.01 0.56zM74.2 0.2v0c3.9 0 6.867-0.667 8.9-2 2.033-1.333 3.05-3.367 3.05-6.1v0c0-2.967-1.02-5.013-3.06-6.14-2.04-1.127-4.57-1.997-7.59-2.61v0c-2.553-0.587-4.657-1.197-6.31-1.83-1.66-0.633-2.49-1.817-2.49-3.55v0c0-1.38 0.547-2.48 1.64-3.3 1.087-0.813 2.757-1.22 5.01-1.22v0c2.333 0 4.18 0.567 5.54 1.7 1.353 1.133 2.173 2.79 2.46 4.97v0l4.48-1.52c-0.487-3.033-1.777-5.203-3.87-6.51-2.087-1.313-4.94-1.97-8.56-1.97v0c-3.633 0-6.49 0.673-8.57 2.02-2.087 1.34-3.13 3.293-3.13 5.86v0c0 2.813 0.947 4.827 2.84 6.04 1.893 1.207 4.347 2.133 7.36 2.78v0c2.653 0.587 4.853 1.2 6.6 1.84 1.753 0.64 2.63 1.903 2.63 3.79v0c0 1.313-0.573 2.377-1.72 3.19-1.14 0.807-2.85 1.21-5.13 1.21v0c-2.42 0-4.343-0.543-5.77-1.63-1.42-1.08-2.273-2.87-2.56-5.37v0l-4.47 1.52c0.513 3.32 1.87 5.62 4.07 6.9 2.2 1.287 5.083 1.93 8.65 1.93zM89.45-29.63l8.65 29.63h7.73l8.57-29.63h-5.3l-7.12 26.15h-0.05l-7.2-26.15zM90.65 8.05v3.48c3.833 0 6.983-0.763 9.45-2.29 2.467-1.527 4.377-4.607 5.73-9.24v0h-4.7c-0.953 3.253-2.23 5.407-3.83 6.46-1.6 1.06-3.817 1.59-6.65 1.59z" fill="#2196f3" fill-rule="nonzero" stroke="none" stroke-width="1" stroke-linecap="butt" stroke-linejoin="miter" stroke-miterlimit="10" stroke-dasharray="" stroke-dashoffset="0" font-family="none" font-weight="none" font-size="none" text-anchor="none" style="mix-blend-mode: normal" data-fill-palette-color="primary" opacity="1"></path><path transform="translate(0,53.3)" d="M14.7 0.2v0c3.9 0 6.867-0.667 8.9-2 2.033-1.333 3.05-3.367 3.05-6.1v0c0-2.967-1.02-5.013-3.06-6.14-2.04-1.127-4.57-1.997-7.59-2.61v0c-2.547-0.587-4.65-1.197-6.31-1.83-1.66-0.633-2.49-1.817-2.49-3.55v0c0-1.38 0.547-2.48 1.64-3.3 1.093-0.813 2.763-1.22 5.01-1.22v0c2.333 0 4.18 0.567 5.54 1.7 1.36 1.133 2.18 2.79 2.46 4.97v0l4.48-1.52c-0.487-3.033-1.777-5.203-3.87-6.51-2.087-1.313-4.94-1.97-8.56-1.97v0c-3.633 0-6.49 0.673-8.57 2.02-2.087 1.34-3.13 3.293-3.13 5.86v0c0 2.813 0.947 4.827 2.84 6.04 1.893 1.207 4.347 2.133 7.36 2.78v0c2.653 0.587 4.853 1.2 6.6 1.84 1.753 0.64 2.63 1.903 2.63 3.79v0c0 1.313-0.573 2.377-1.72 3.19-1.14 0.807-2.85 1.21-5.13 1.21v0c-2.42 0-4.343-0.543-5.77-1.63-1.42-1.08-2.273-2.87-2.56-5.37v0l-4.47 1.52c0.513 3.32 1.87 5.62 4.07 6.9 2.2 1.287 5.083 1.93 8.65 1.93zM31.6-39.25v39.25h5.08v-39.25zM50.25-16.93v16.93h5.05v-17.1c0-4.053-0.737-7.203-2.21-9.45-1.473-2.253-3.92-3.38-7.34-3.38v0c-3.447 0-6.243 1.077-8.39 3.23-2.14 2.147-3.21 4.437-3.21 6.87v0l2.43 1.55c0-2.333 0.7-4.267 2.1-5.8 1.4-1.533 3.15-2.3 5.25-2.3v0c2.08 0 3.653 0.717 4.72 2.15 1.067 1.433 1.6 3.867 1.6 7.3zM72.9 0.2v0c4.433 0 7.713-1.23 9.84-3.69 2.12-2.46 3.18-6.263 3.18-11.41v0c0-5.153-1.06-8.95-3.18-11.39-2.127-2.44-5.407-3.66-9.84-3.66v0c-4.413 0-7.687 1.22-9.82 3.66-2.133 2.44-3.2 6.237-3.2 11.39v0c0 5.147 1.067 8.95 3.2 11.41 2.133 2.46 5.407 3.69 9.82 3.69zM72.9-3.28v0c-2.32 0-4.23-0.81-5.73-2.43-1.5-1.627-2.25-4.683-2.25-9.17v0c0-4.48 0.75-7.53 2.25-9.15 1.5-1.613 3.41-2.42 5.73-2.42v0c2.32 0 4.23 0.807 5.73 2.42 1.5 1.62 2.25 4.67 2.25 9.15v0c0 4.487-0.75 7.543-2.25 9.17-1.5 1.62-3.41 2.43-5.73 2.43zM90.83-29.63v40.68h5.05v-35.63l-1.08-5.05zM105.33 0.2v0c3.547 0 6.197-1.263 7.95-3.79 1.747-2.527 2.62-6.29 2.62-11.29v0c0-5.013-0.873-8.77-2.62-11.27-1.753-2.5-4.403-3.75-7.95-3.75v0c-3.24 0-5.99 0.813-8.25 2.44-2.273 1.62-3.41 3.313-3.41 5.08v0l2.21 2.65c0-1.713 0.763-3.25 2.29-4.61 1.533-1.36 3.353-2.04 5.46-2.04v0c2.227 0 3.98 0.827 5.26 2.48 1.273 1.647 1.91 4.663 1.91 9.05v0c0 4.4-0.637 7.42-1.91 9.06-1.28 1.64-3.033 2.46-5.26 2.46v0c-2.107 0-3.927-0.677-5.46-2.03-1.527-1.36-2.29-2.917-2.29-4.67v0l-2.21 2.73c0 1.753 1.137 3.44 3.41 5.06 2.26 1.627 5.01 2.44 8.25 2.44z" fill="#2196f3" fill-rule="nonzero" stroke="none" stroke-width="1" stroke-linecap="butt" stroke-linejoin="miter" stroke-miterlimit="10" stroke-dasharray="" stroke-dashoffset="0" font-family="none" font-weight="none" font-size="none" text-anchor="none" style="mix-blend-mode: normal" data-fill-palette-color="primary" opacity="1"></path></g></svg></g></svg></g></svg></g></svg></g><g transform="matrix(1,0,0,1,0,30.908333249401622)"><svg viewBox="0 0 132.09315196998125 139.18333350119673" height="139.18333350119673" width="132.09315196998125"><g><svg xmlns="http://www.w3.org/2000/svg" xmlns:xlink="http://www.w3.org/1999/xlink" version="1.1" x="0" y="0" viewBox="7.485247432425714 4.990000000000001 83.67850457535641 88.17" enable-background="new 0 0 100 100" xml:space="preserve" height="139.18333350119673" width="132.09315196998125" class="icon-icon-0" data-fill-palette-color="accent" id="icon-0"><path d="M90.861 51.847c-3.641-5.361-16.009-22.855-22.282-22.855h-6.1c-0.419 0-0.817 0.158-1.132 0.427l-9.787-6.07v-3.296c3.369-0.794 5.887-3.818 5.887-7.426 0-4.211-3.426-7.637-7.637-7.637s-7.637 3.426-7.637 7.637c0 0.966 0.784 1.75 1.75 1.75s1.75-0.784 1.75-1.75c0-2.281 1.856-4.137 4.137-4.137 2.281 0 4.137 1.856 4.137 4.137s-1.855 4.137-4.137 4.137c-0.966 0-1.75 0.784-1.75 1.75v4.838l-9.328 5.784c-0.216-0.093-0.451-0.143-0.691-0.143h-7.797c-5.947 0-18.68 17.477-22.441 22.833-0.527 0.752-0.385 1.782 0.326 2.362l14.08 11.479c0.749 0.609 1.851 0.498 2.462-0.251l0.99-1.214v27.208c0 0.967 0.784 1.75 1.75 1.75h44.167c0.966 0 1.75-0.783 1.75-1.75v-26.79l0.649 0.797c0.611 0.748 1.714 0.86 2.463 0.25L90.52 54.187C91.223 53.613 91.371 52.598 90.861 51.847zM49.812 26.382l10.709 6.643c-0.753 3.063-3.539 5.346-6.859 5.346h-6.834c-3.482 0-6.373-2.532-6.931-5.84L49.812 26.382zM75.586 61.847l-2.65-3.249c-0.469-0.574-1.248-0.792-1.943-0.543-0.697 0.248-1.163 0.908-1.163 1.648v29.955H29.162V59.285c0-0.74-0.466-1.4-1.163-1.648-0.696-0.248-1.476-0.031-1.943 0.543l-2.99 3.667L11.61 52.508c2.298-3.207 4.783-6.44 7.185-9.348 1.032-1.25 2.048-2.439 3.028-3.54 3.756-4.218 6.969-7.129 8.422-7.129h3.075 3.032c0.073 0.683 0.215 1.345 0.413 1.982 0.865 2.779 2.858 5.065 5.444 6.329 1.396 0.682 2.962 1.069 4.619 1.069h6.834c1.661 0 3.232-0.387 4.632-1.069 2.45-1.193 4.362-3.301 5.3-5.873 0.282-0.776 0.485-1.59 0.576-2.438h2.132 2.277c1.427 0 4.264 2.456 7.594 6.123 1.384 1.524 2.853 3.257 4.342 5.112 2.211 2.754 4.464 5.772 6.544 8.767L75.586 61.847z" fill="#2196f3" data-fill-palette-color="accent"></path></svg></g></svg></g></svg></g><defs></defs></svg><rect width="395.52" height="199.29470904891775" fill="none" stroke="none" visibility="hidden"></rect></g></svg></g></svg>